#!OML:ASF H:\GeneralSubjects\Female5\Project 1\Capture day 1\Session 1\Female5.ASF
:FULLY-SPECIFIED
:DEGREES
377
root -2.06015 14.1274 6.18507 6.15962 86.7385 -32.2875
lowerback 26.1819 0.49628 2.21328
upperback -6.69833 1.92163 1.92784
thorax -22.3816 0.676134 0.135313
lowerneck -22.1256 -1.15847 -0.391106
upperneck 21.8193 -0.850441 -1.95632
head 10.6743 -0.630403 -0.764166
rclavicle -1.15295e-014 9.93923e-015
rhumerus -57.8363 27.7353 -93.76
rradius 23.8441
rwrist -6.02573
rhand -24.6738 -27.4671
rfingers 7.12502
rthumb 1.82666 -57.439
lclavicle -1.15295e-014 9.93923e-015
lhumerus -40.3326 -9.74487 83.7435
lradius 26.0057
lwrist -8.86869
lhand -27.385 36.5604
lfingers 7.12502
lthumb -0.791955 66.5387
rfemur -70.7306 11.9201 25.8749
rtibia 49.1117
rfoot -22.1135 -13.4884
rtoes -21.1315
lfemur -52.9282 -13.8953 -21.5793
ltibia 63.2594
lfoot -14.9216 -21.3667
ltoes -24.323
378
root -1.85624 14.0786 6.21132 6.4671 86.7675 -31.2724
lowerback 25.7733 0.48358 2.20533
upperback -6.72641 1.92613 2.09281
thorax -22.1925 0.700779 0.332804
lowerneck -22.3038 -1.2351 -0.523509
upperneck 22.0051 -0.925931 -1.87814
head 10.7765 -0.66672 -0.728948
rclavicle -5.56597e-015 3.97569e-016
rhumerus -50.369 34.2404 -93.2259
rradius 29.2536
rwrist -3.04657
rhand -25.8737 -26.5022
rfingers 7.12502
rthumb 0.667707 -56.4809
lclavicle -5.56597e-015 3.97569e-016
lhumerus -33.8434 -18.1687 88.3391
lradius 31.8034
lwrist -5.39931
lhand -27.4949 37.1503
lfingers 7.12502
lthumb -0.898084 67.1281
rfemur -69.7892 11.1716 26.8611
rtibia 50.93
rfoot -23.3586 -12.3838
rtoes -20.5363
lfemur -51.1938 -13.8933 -22.0464
ltibia 63.7283
lfoot -14.4829 -21.8193
ltoes -23.4174
379
root -1.6397 14.0562 6.23874 6.90476 86.8204 -30.0668
lowerback 25.0956 0.436184 2.17144
upperback -6.80266 1.86924 2.27189
thorax -21.9124 0.707371 0.589741
lowerneck -22.4537 -1.29172 -0.568659
upperneck 22.2537 -0.974965 -1.89703
head 10.8963 -0.695288 -0.739511
rclavicle -8.34896e-015 0
rhumerus -40.1973 38.9594 -88.8214
rradius 34.4237
rwrist -0.0899563
rhand -27.0678 -25.6416
rfingers 7.12502
rthumb -0.485593 -55.6208
lclavicle -8.34896e-015 0
lhumerus -26.4748 -25.2958 89.0394
lradius 38.1365
lwrist -3.73643
lhand -28.2407 37.555
lfingers 7.12502
lthumb -1.61838 67.5286
rfemur -68.3857 10.3977 27.7259
rtibia 52.1854
rfoot -24.4358 -11.3498
rtoes -19.8566
lfemur -49.2849 -13.8119 -22.5372
ltibia 63.9868
lfoot -13.8513 -22.0022
ltoes -22.5694
380
root -1.40663 14.059 6.26637 8.23221 86.8417 -27.9362
lowerback 24.2753 0.382439 2.11982
upperback -6.97601 1.79392 2.43311
thorax -21.6744 0.7071 0.843937
lowerneck -22.6042 -1.35832 -0.636811
upperneck 22.5443 -1.02532 -1.92521
head 11.0326 -0.727433 -0.750446
rclavicle -2.42517e-014 -2.22639e-014
rhumerus -28.2133 41.4204 -82.0765
rradius 39.3756
rwrist 2.15789
rhand -27.9312 -24.5902
rfingers 7.12502
rthumb -1.31943 -54.5658
lclavicle -2.42517e-014 -2.22639e-014
lhumerus -17.9863 -30.6062 86.422
lradius 44.6365
lwrist -3.17996
lhand -29.7261 37.6019
lfingers 7.12502
lthumb -3.05291 67.5598
rfemur -66.5866 9.64762 28.4286
rtibia 52.9558
rfoot -25.2702 -10.4283
rtoes -19.3418
lfemur -47.1298 -13.5697 -23.1006
ltibia 63.8823
lfoot -13.0541 -21.8373
ltoes -21.7913
